<?xml version="1.0" encoding="UTF-8" standalone="no"?>
<!DOCTYPE svg PUBLIC "-//W3C//DTD SVG 1.1//EN"
 "http://www.w3.org/Graphics/SVG/1.1/DTD/svg11.dtd">
<!-- Generated by graphviz version 2.40.1 (20161225.0304)
 -->
<!-- Title: dependencies Pages: 1 -->
<svg width="5275pt" height="284pt"
 viewBox="0.00 0.00 5275.00 284.00" xmlns="http://www.w3.org/2000/svg" xmlns:xlink="http://www.w3.org/1999/xlink">
<g id="graph0" class="graph" transform="scale(1 1) rotate(0) translate(4 280)">
<title>dependencies</title>
<polygon fill="#ffffff" stroke="transparent" points="-4,4 -4,-280 5271,-280 5271,4 -4,4"/>
<text text-anchor="start" x="2612.5091" y="-42.4" font-family="sans-serif" font-weight="bold" font-size="14.00" fill="#000000">Legend</text>
<polygon fill="#ffffb3" stroke="transparent" points="2399.5,-10 2399.5,-30 2419.5,-30 2419.5,-10 2399.5,-10"/>
<text text-anchor="start" x="2423.129" y="-15.4" font-family="sans-serif" font-size="14.00" fill="#000000"> &#160;Declarations</text>
<polygon fill="#8dd3c7" stroke="transparent" points="2512.5,-10 2512.5,-30 2532.5,-30 2532.5,-10 2512.5,-10"/>
<text text-anchor="start" x="2536.2251" y="-15.4" font-family="sans-serif" font-size="14.00" fill="#000000"> &#160;Module</text>
<polygon fill="#80b1d3" stroke="transparent" points="2598.5,-10 2598.5,-30 2618.5,-30 2618.5,-10 2598.5,-10"/>
<text text-anchor="start" x="2622.2812" y="-15.4" font-family="sans-serif" font-size="14.00" fill="#000000"> &#160;Bootstrap</text>
<polygon fill="#fdb462" stroke="transparent" points="2695.5,-10 2695.5,-30 2715.5,-30 2715.5,-10 2695.5,-10"/>
<text text-anchor="start" x="2719.1732" y="-15.4" font-family="sans-serif" font-size="14.00" fill="#000000"> &#160;Providers</text>
<polygon fill="#fb8072" stroke="transparent" points="2791.5,-10 2791.5,-30 2811.5,-30 2811.5,-10 2791.5,-10"/>
<text text-anchor="start" x="2815.2258" y="-15.4" font-family="sans-serif" font-size="14.00" fill="#000000"> &#160;Exports</text>
<g id="clust1" class="cluster">
<title>cluster_AppModule</title>
<polygon fill="none" stroke="#000000" stroke-dasharray="1,5" points="8,-70 8,-268 5259,-268 5259,-70 8,-70"/>
</g>
<g id="clust2" class="cluster">
<title>cluster_AppModule_declarations</title>
<polygon fill="none" stroke="#000000" points="463,-78 463,-130 5251,-130 5251,-78 463,-78"/>
</g>
<g id="clust33" class="cluster">
<title>cluster_AppModule_imports</title>
<polygon fill="none" stroke="#000000" points="186,-78 186,-130 455,-130 455,-78 186,-78"/>
</g>
<g id="clust35" class="cluster">
<title>cluster_AppModule_bootstrap</title>
<polygon fill="none" stroke="#000000" points="2682,-208 2682,-260 2806,-260 2806,-208 2682,-208"/>
</g>
<g id="clust36" class="cluster">
<title>cluster_AppModule_providers</title>
<polygon fill="none" stroke="#000000" points="16,-78 16,-130 178,-130 178,-78 16,-78"/>
</g>
<!-- AdminComponent -->
<g id="node1" class="node">
<title>AdminComponent</title>
<polygon fill="#ffffb3" stroke="#000000" points="5243.2204,-122 5122.7796,-122 5122.7796,-86 5243.2204,-86 5243.2204,-122"/>
<text text-anchor="middle" x="5183" y="-99.8" font-family="Times,serif" font-size="14.00" fill="#000000">AdminComponent</text>
</g>
<!-- AppModule -->
<g id="node31" class="node">
<title>AppModule</title>
<polygon fill="#8dd3c7" stroke="#000000" points="2785.6571,-187 2782.6571,-191 2761.6571,-191 2758.6571,-187 2702.3429,-187 2702.3429,-151 2785.6571,-151 2785.6571,-187"/>
<text text-anchor="middle" x="2744" y="-164.8" font-family="Times,serif" font-size="14.00" fill="#000000">AppModule</text>
</g>
<!-- AdminComponent&#45;&gt;AppModule -->
<g id="edge1" class="edge">
<title>AdminComponent&#45;&gt;AppModule</title>
<path fill="none" stroke="#000000" d="M5183,-122.3802C5183,-146.2785 5183,-185 5183,-185 5183,-185 2795.8203,-185 2795.8203,-185"/>
<polygon fill="#000000" stroke="#000000" points="2795.8203,-181.5001 2785.8203,-185 2795.8202,-188.5001 2795.8203,-181.5001"/>
</g>
<!-- AdminCrudComponent -->
<g id="node2" class="node">
<title>AdminCrudComponent</title>
<polygon fill="#ffffb3" stroke="#000000" points="5105.2176,-122 4956.7824,-122 4956.7824,-86 5105.2176,-86 5105.2176,-122"/>
<text text-anchor="middle" x="5031" y="-99.8" font-family="Times,serif" font-size="14.00" fill="#000000">AdminCrudComponent</text>
</g>
<!-- AdminCrudComponent&#45;&gt;AppModule -->
<g id="edge2" class="edge">
<title>AdminCrudComponent&#45;&gt;AppModule</title>
<path fill="none" stroke="#000000" d="M5031,-122.3228C5031,-145.6602 5031,-183 5031,-183 5031,-183 2796.1424,-183 2796.1424,-183"/>
<polygon fill="#000000" stroke="#000000" points="2796.1424,-179.5001 2786.1424,-183 2796.1424,-186.5001 2796.1424,-179.5001"/>
</g>
<!-- AppComponent -->
<g id="node3" class="node">
<title>AppComponent</title>
<polygon fill="#ffffb3" stroke="#000000" points="4938.9399,-122 4833.0601,-122 4833.0601,-86 4938.9399,-86 4938.9399,-122"/>
<text text-anchor="middle" x="4886" y="-99.8" font-family="Times,serif" font-size="14.00" fill="#000000">AppComponent</text>
</g>
<!-- AppComponent&#45;&gt;AppModule -->
<g id="edge3" class="edge">
<title>AppComponent&#45;&gt;AppModule</title>
<path fill="none" stroke="#000000" d="M4886,-122.2479C4886,-145.0179 4886,-181 4886,-181 4886,-181 2795.8268,-181 2795.8268,-181"/>
<polygon fill="#000000" stroke="#000000" points="2795.8269,-177.5001 2785.8268,-181 2795.8268,-184.5001 2795.8269,-177.5001"/>
</g>
<!-- CambiarContrasenaComponent -->
<g id="node4" class="node">
<title>CambiarContrasenaComponent</title>
<polygon fill="#ffffb3" stroke="#000000" points="4815.0168,-122 4622.9832,-122 4622.9832,-86 4815.0168,-86 4815.0168,-122"/>
<text text-anchor="middle" x="4719" y="-99.8" font-family="Times,serif" font-size="14.00" fill="#000000">CambiarContrasenaComponent</text>
</g>
<!-- CambiarContrasenaComponent&#45;&gt;AppModule -->
<g id="edge4" class="edge">
<title>CambiarContrasenaComponent&#45;&gt;AppModule</title>
<path fill="none" stroke="#000000" d="M4719,-122.1554C4719,-144.3519 4719,-179 4719,-179 4719,-179 2795.7064,-179 2795.7064,-179"/>
<polygon fill="#000000" stroke="#000000" points="2795.7064,-175.5001 2785.7064,-179 2795.7063,-182.5001 2795.7064,-175.5001"/>
</g>
<!-- CategoriaComponent -->
<g id="node5" class="node">
<title>CategoriaComponent</title>
<polygon fill="#ffffb3" stroke="#000000" points="4604.7548,-122 4469.2452,-122 4469.2452,-86 4604.7548,-86 4604.7548,-122"/>
<text text-anchor="middle" x="4537" y="-99.8" font-family="Times,serif" font-size="14.00" fill="#000000">CategoriaComponent</text>
</g>
<!-- CategoriaComponent&#45;&gt;AppModule -->
<g id="edge5" class="edge">
<title>CategoriaComponent&#45;&gt;AppModule</title>
<path fill="none" stroke="#000000" d="M4537,-122.0449C4537,-143.6623 4537,-177 4537,-177 4537,-177 2795.6814,-177 2795.6814,-177"/>
<polygon fill="#000000" stroke="#000000" points="2795.6815,-173.5001 2785.6814,-177 2795.6814,-180.5001 2795.6815,-173.5001"/>
</g>
<!-- CategoriasAdminComponent -->
<g id="node6" class="node">
<title>CategoriasAdminComponent</title>
<polygon fill="#ffffb3" stroke="#000000" points="4451.087,-122 4270.913,-122 4270.913,-86 4451.087,-86 4451.087,-122"/>
<text text-anchor="middle" x="4361" y="-99.8" font-family="Times,serif" font-size="14.00" fill="#000000">CategoriasAdminComponent</text>
</g>
<!-- CategoriasAdminComponent&#45;&gt;AppModule -->
<g id="edge6" class="edge">
<title>CategoriasAdminComponent&#45;&gt;AppModule</title>
<path fill="none" stroke="#000000" d="M4361,-122.2843C4361,-143.3211 4361,-175 4361,-175 4361,-175 2796.0069,-175 2796.0069,-175"/>
<polygon fill="#000000" stroke="#000000" points="2796.0069,-171.5001 2786.0069,-175 2796.0068,-178.5001 2796.0069,-171.5001"/>
</g>
<!-- CategoriasComponent -->
<g id="node7" class="node">
<title>CategoriasComponent</title>
<polygon fill="#ffffb3" stroke="#000000" points="4252.6993,-122 4111.3007,-122 4111.3007,-86 4252.6993,-86 4252.6993,-122"/>
<text text-anchor="middle" x="4182" y="-99.8" font-family="Times,serif" font-size="14.00" fill="#000000">CategoriasComponent</text>
</g>
<!-- CategoriasComponent&#45;&gt;AppModule -->
<g id="edge7" class="edge">
<title>CategoriasComponent&#45;&gt;AppModule</title>
<path fill="none" stroke="#000000" d="M4158.4668,-122.308C4158.4668,-142.1455 4158.4668,-171 4158.4668,-171 4158.4668,-171 2795.9484,-171 2795.9484,-171"/>
<polygon fill="#000000" stroke="#000000" points="2795.9485,-167.5001 2785.9484,-171 2795.9484,-174.5001 2795.9485,-167.5001"/>
</g>
<!-- CategoriasComponent&#45;&gt;AppModule -->
<g id="edge8" class="edge">
<title>CategoriasComponent&#45;&gt;AppModule</title>
<path fill="none" stroke="#000000" d="M4205.5332,-122.1289C4205.5332,-142.5724 4205.5332,-173 4205.5332,-173 4205.5332,-173 2795.7748,-173 2795.7748,-173"/>
<polygon fill="#000000" stroke="#000000" points="2795.7748,-169.5001 2785.7748,-173 2795.7747,-176.5001 2795.7748,-169.5001"/>
</g>
<!-- ComentariosComponent -->
<g id="node8" class="node">
<title>ComentariosComponent</title>
<polygon fill="#ffffb3" stroke="#000000" points="4093.3753,-122 3940.6247,-122 3940.6247,-86 4093.3753,-86 4093.3753,-122"/>
<text text-anchor="middle" x="4017" y="-99.8" font-family="Times,serif" font-size="14.00" fill="#000000">ComentariosComponent</text>
</g>
<!-- ComentariosComponent&#45;&gt;AppModule -->
<g id="edge9" class="edge">
<title>ComentariosComponent&#45;&gt;AppModule</title>
<path fill="none" stroke="#000000" d="M4017,-122.1686C4017,-141.0898 4017,-168 4017,-168 4017,-168 2795.9924,-168 2795.9924,-168"/>
<polygon fill="#000000" stroke="#000000" points="2795.9924,-164.5001 2785.9924,-168 2795.9924,-171.5001 2795.9924,-164.5001"/>
</g>
<!-- ContenidoRecomendadoComponent -->
<g id="node9" class="node">
<title>ContenidoRecomendadoComponent</title>
<polygon fill="#ffffb3" stroke="#000000" points="3922.7505,-122 3703.2495,-122 3703.2495,-86 3922.7505,-86 3922.7505,-122"/>
<text text-anchor="middle" x="3813" y="-99.8" font-family="Times,serif" font-size="14.00" fill="#000000">ContenidoRecomendadoComponent</text>
</g>
<!-- ContenidoRecomendadoComponent&#45;&gt;AppModule -->
<g id="edge10" class="edge">
<title>ContenidoRecomendadoComponent&#45;&gt;AppModule</title>
<path fill="none" stroke="#000000" d="M3813,-122.2667C3813,-140.5552 3813,-166 3813,-166 3813,-166 2795.9061,-166 2795.9061,-166"/>
<polygon fill="#000000" stroke="#000000" points="2795.9061,-162.5001 2785.9061,-166 2795.906,-169.5001 2795.9061,-162.5001"/>
</g>
<!-- DateAgoPipe -->
<g id="node10" class="node">
<title>DateAgoPipe</title>
<polygon fill="#ffffb3" stroke="#000000" points="3684.9218,-122 3593.0782,-122 3593.0782,-86 3684.9218,-86 3684.9218,-122"/>
<text text-anchor="middle" x="3639" y="-99.8" font-family="Times,serif" font-size="14.00" fill="#000000">DateAgoPipe</text>
</g>
<!-- DateAgoPipe&#45;&gt;AppModule -->
<g id="edge11" class="edge">
<title>DateAgoPipe&#45;&gt;AppModule</title>
<path fill="none" stroke="#000000" d="M3639,-122.002C3639,-139.6754 3639,-164 3639,-164 3639,-164 2795.6695,-164 2795.6695,-164"/>
<polygon fill="#000000" stroke="#000000" points="2795.6696,-160.5001 2785.6695,-164 2795.6695,-167.5001 2795.6696,-160.5001"/>
</g>
<!-- ForoComponent -->
<g id="node11" class="node">
<title>ForoComponent</title>
<polygon fill="#ffffb3" stroke="#000000" points="3574.7758,-122 3467.2242,-122 3467.2242,-86 3574.7758,-86 3574.7758,-122"/>
<text text-anchor="middle" x="3521" y="-99.8" font-family="Times,serif" font-size="14.00" fill="#000000">ForoComponent</text>
</g>
<!-- ForoComponent&#45;&gt;AppModule -->
<g id="edge12" class="edge">
<title>ForoComponent&#45;&gt;AppModule</title>
<path fill="none" stroke="#000000" d="M3521,-122.0336C3521,-139.0597 3521,-162 3521,-162 3521,-162 2795.7749,-162 2795.7749,-162"/>
<polygon fill="#000000" stroke="#000000" points="2795.7749,-158.5001 2785.7749,-162 2795.7749,-165.5001 2795.7749,-158.5001"/>
</g>
<!-- ForoFilterPipe -->
<g id="node12" class="node">
<title>ForoFilterPipe</title>
<polygon fill="#ffffb3" stroke="#000000" points="3448.6612,-122 3351.3388,-122 3351.3388,-86 3448.6612,-86 3448.6612,-122"/>
<text text-anchor="middle" x="3400" y="-99.8" font-family="Times,serif" font-size="14.00" fill="#000000">ForoFilterPipe</text>
</g>
<!-- ForoFilterPipe&#45;&gt;AppModule -->
<g id="edge13" class="edge">
<title>ForoFilterPipe&#45;&gt;AppModule</title>
<path fill="none" stroke="#000000" d="M3400,-122.027C3400,-138.3976 3400,-160 3400,-160 3400,-160 2795.7832,-160 2795.7832,-160"/>
<polygon fill="#000000" stroke="#000000" points="2795.7832,-156.5001 2785.7832,-160 2795.7832,-163.5001 2795.7832,-156.5001"/>
</g>
<!-- ForosAdminComponent -->
<g id="node13" class="node">
<title>ForosAdminComponent</title>
<polygon fill="#ffffb3" stroke="#000000" points="3333.108,-122 3180.892,-122 3180.892,-86 3333.108,-86 3333.108,-122"/>
<text text-anchor="middle" x="3257" y="-99.8" font-family="Times,serif" font-size="14.00" fill="#000000">ForosAdminComponent</text>
</g>
<!-- ForosAdminComponent&#45;&gt;AppModule -->
<g id="edge14" class="edge">
<title>ForosAdminComponent&#45;&gt;AppModule</title>
<path fill="none" stroke="#000000" d="M3257,-122.2819C3257,-137.9478 3257,-158 3257,-158 3257,-158 2795.9809,-158 2795.9809,-158"/>
<polygon fill="#000000" stroke="#000000" points="2795.981,-154.5001 2785.9809,-158 2795.9809,-161.5001 2795.981,-154.5001"/>
</g>
<!-- ForosComponent -->
<g id="node14" class="node">
<title>ForosComponent</title>
<polygon fill="#ffffb3" stroke="#000000" points="3162.7204,-122 3049.2796,-122 3049.2796,-86 3162.7204,-86 3162.7204,-122"/>
<text text-anchor="middle" x="3106" y="-99.8" font-family="Times,serif" font-size="14.00" fill="#000000">ForosComponent</text>
</g>
<!-- ForosComponent&#45;&gt;AppModule -->
<g id="edge15" class="edge">
<title>ForosComponent&#45;&gt;AppModule</title>
<path fill="none" stroke="#000000" d="M3106,-122.1871C3106,-137.1824 3106,-156 3106,-156 3106,-156 2795.8796,-156 2795.8796,-156"/>
<polygon fill="#000000" stroke="#000000" points="2795.8797,-152.5001 2785.8796,-156 2795.8796,-159.5001 2795.8797,-152.5001"/>
</g>
<!-- HomeComponent -->
<g id="node15" class="node">
<title>HomeComponent</title>
<polygon fill="#ffffb3" stroke="#000000" points="3031.5451,-122 2916.4549,-122 2916.4549,-86 3031.5451,-86 3031.5451,-122"/>
<text text-anchor="middle" x="2974" y="-99.8" font-family="Times,serif" font-size="14.00" fill="#000000">HomeComponent</text>
</g>
<!-- HomeComponent&#45;&gt;AppModule -->
<g id="edge16" class="edge">
<title>HomeComponent&#45;&gt;AppModule</title>
<path fill="none" stroke="#000000" d="M2974,-122.0511C2974,-136.373 2974,-154 2974,-154 2974,-154 2795.9181,-154 2795.9181,-154"/>
<polygon fill="#000000" stroke="#000000" points="2795.9181,-150.5001 2785.9181,-154 2795.9181,-157.5001 2795.9181,-150.5001"/>
</g>
<!-- IniciarSesionComponent -->
<g id="node16" class="node">
<title>IniciarSesionComponent</title>
<polygon fill="#ffffb3" stroke="#000000" points="2898.6965,-122 2743.3035,-122 2743.3035,-86 2898.6965,-86 2898.6965,-122"/>
<text text-anchor="middle" x="2821" y="-99.8" font-family="Times,serif" font-size="14.00" fill="#000000">IniciarSesionComponent</text>
</g>
<!-- IniciarSesionComponent&#45;&gt;AppModule -->
<g id="edge17" class="edge">
<title>IniciarSesionComponent&#45;&gt;AppModule</title>
<path fill="none" stroke="#000000" d="M2764.615,-122.1061C2764.615,-122.1061 2764.615,-140.991 2764.615,-140.991"/>
<polygon fill="#000000" stroke="#000000" points="2761.1151,-140.9909 2764.615,-150.991 2768.1151,-140.991 2761.1151,-140.9909"/>
</g>
<!-- InicioComponent -->
<g id="node17" class="node">
<title>InicioComponent</title>
<polygon fill="#ffffb3" stroke="#000000" points="2724.9888,-122 2611.0112,-122 2611.0112,-86 2724.9888,-86 2724.9888,-122"/>
<text text-anchor="middle" x="2668" y="-99.8" font-family="Times,serif" font-size="14.00" fill="#000000">InicioComponent</text>
</g>
<!-- InicioComponent&#45;&gt;AppModule -->
<g id="edge18" class="edge">
<title>InicioComponent&#45;&gt;AppModule</title>
<path fill="none" stroke="#000000" d="M2713.5831,-122.1061C2713.5831,-122.1061 2713.5831,-140.991 2713.5831,-140.991"/>
<polygon fill="#000000" stroke="#000000" points="2710.0832,-140.9909 2713.5831,-150.991 2717.0832,-140.991 2710.0832,-140.9909"/>
</g>
<!-- LostPasswordComponent -->
<g id="node18" class="node">
<title>LostPasswordComponent</title>
<polygon fill="#ffffb3" stroke="#000000" points="2592.8738,-122 2433.1262,-122 2433.1262,-86 2592.8738,-86 2592.8738,-122"/>
<text text-anchor="middle" x="2513" y="-99.8" font-family="Times,serif" font-size="14.00" fill="#000000">LostPasswordComponent</text>
</g>
<!-- LostPasswordComponent&#45;&gt;AppModule -->
<g id="edge19" class="edge">
<title>LostPasswordComponent&#45;&gt;AppModule</title>
<path fill="none" stroke="#000000" d="M2513,-122.0511C2513,-136.373 2513,-154 2513,-154 2513,-154 2692.1676,-154 2692.1676,-154"/>
<polygon fill="#000000" stroke="#000000" points="2692.1677,-157.5001 2702.1676,-154 2692.1676,-150.5001 2692.1677,-157.5001"/>
</g>
<!-- MenuComponent -->
<g id="node19" class="node">
<title>MenuComponent</title>
<polygon fill="#ffffb3" stroke="#000000" points="2414.9916,-122 2301.0084,-122 2301.0084,-86 2414.9916,-86 2414.9916,-122"/>
<text text-anchor="middle" x="2358" y="-99.8" font-family="Times,serif" font-size="14.00" fill="#000000">MenuComponent</text>
</g>
<!-- MenuComponent&#45;&gt;AppModule -->
<g id="edge20" class="edge">
<title>MenuComponent&#45;&gt;AppModule</title>
<path fill="none" stroke="#000000" d="M2358,-122.1871C2358,-137.1824 2358,-156 2358,-156 2358,-156 2692.3245,-156 2692.3245,-156"/>
<polygon fill="#000000" stroke="#000000" points="2692.3245,-159.5001 2702.3245,-156 2692.3245,-152.5001 2692.3245,-159.5001"/>
</g>
<!-- NavbarComponent -->
<g id="node20" class="node">
<title>NavbarComponent</title>
<polygon fill="#ffffb3" stroke="#000000" points="2283.0297,-122 2160.9703,-122 2160.9703,-86 2283.0297,-86 2283.0297,-122"/>
<text text-anchor="middle" x="2222" y="-99.8" font-family="Times,serif" font-size="14.00" fill="#000000">NavbarComponent</text>
</g>
<!-- NavbarComponent&#45;&gt;AppModule -->
<g id="edge21" class="edge">
<title>NavbarComponent&#45;&gt;AppModule</title>
<path fill="none" stroke="#000000" d="M2222,-122.2819C2222,-137.9478 2222,-158 2222,-158 2222,-158 2692.1649,-158 2692.1649,-158"/>
<polygon fill="#000000" stroke="#000000" points="2692.165,-161.5001 2702.1649,-158 2692.1649,-154.5001 2692.165,-161.5001"/>
</g>
<!-- NotFoundComponent -->
<g id="node21" class="node">
<title>NotFoundComponent</title>
<polygon fill="#ffffb3" stroke="#000000" points="2143.1122,-122 2004.8878,-122 2004.8878,-86 2143.1122,-86 2143.1122,-122"/>
<text text-anchor="middle" x="2074" y="-99.8" font-family="Times,serif" font-size="14.00" fill="#000000">NotFoundComponent</text>
</g>
<!-- NotFoundComponent&#45;&gt;AppModule -->
<g id="edge22" class="edge">
<title>NotFoundComponent&#45;&gt;AppModule</title>
<path fill="none" stroke="#000000" d="M2074,-122.027C2074,-138.3976 2074,-160 2074,-160 2074,-160 2692.3416,-160 2692.3416,-160"/>
<polygon fill="#000000" stroke="#000000" points="2692.3417,-163.5001 2702.3416,-160 2692.3416,-156.5001 2692.3417,-163.5001"/>
</g>
<!-- PagoPremiumComponent -->
<g id="node22" class="node">
<title>PagoPremiumComponent</title>
<polygon fill="#ffffb3" stroke="#000000" points="1987.1596,-122 1826.8404,-122 1826.8404,-86 1987.1596,-86 1987.1596,-122"/>
<text text-anchor="middle" x="1907" y="-99.8" font-family="Times,serif" font-size="14.00" fill="#000000">PagoPremiumComponent</text>
</g>
<!-- PagoPremiumComponent&#45;&gt;AppModule -->
<g id="edge23" class="edge">
<title>PagoPremiumComponent&#45;&gt;AppModule</title>
<path fill="none" stroke="#000000" d="M1907,-122.0336C1907,-139.0597 1907,-162 1907,-162 1907,-162 2692.2067,-162 2692.2067,-162"/>
<polygon fill="#000000" stroke="#000000" points="2692.2067,-165.5001 2702.2067,-162 2692.2066,-158.5001 2692.2067,-165.5001"/>
</g>
<!-- PictureComponent -->
<g id="node23" class="node">
<title>PictureComponent</title>
<polygon fill="#ffffb3" stroke="#000000" points="1808.486,-122 1687.514,-122 1687.514,-86 1808.486,-86 1808.486,-122"/>
<text text-anchor="middle" x="1748" y="-99.8" font-family="Times,serif" font-size="14.00" fill="#000000">PictureComponent</text>
</g>
<!-- PictureComponent&#45;&gt;AppModule -->
<g id="edge24" class="edge">
<title>PictureComponent&#45;&gt;AppModule</title>
<path fill="none" stroke="#000000" d="M1748,-122.002C1748,-139.6754 1748,-164 1748,-164 1748,-164 2692.1558,-164 2692.1558,-164"/>
<polygon fill="#000000" stroke="#000000" points="2692.1558,-167.5001 2702.1558,-164 2692.1557,-160.5001 2692.1558,-167.5001"/>
</g>
<!-- PictureForoComponent -->
<g id="node24" class="node">
<title>PictureForoComponent</title>
<polygon fill="#ffffb3" stroke="#000000" points="1669.9298,-122 1522.0702,-122 1522.0702,-86 1669.9298,-86 1669.9298,-122"/>
<text text-anchor="middle" x="1596" y="-99.8" font-family="Times,serif" font-size="14.00" fill="#000000">PictureForoComponent</text>
</g>
<!-- PictureForoComponent&#45;&gt;AppModule -->
<g id="edge25" class="edge">
<title>PictureForoComponent&#45;&gt;AppModule</title>
<path fill="none" stroke="#000000" d="M1596,-122.2667C1596,-140.5552 1596,-166 1596,-166 1596,-166 2692.1229,-166 2692.1229,-166"/>
<polygon fill="#000000" stroke="#000000" points="2692.1229,-169.5001 2702.1229,-166 2692.1228,-162.5001 2692.1229,-169.5001"/>
</g>
<!-- RegistrarAdminComponent -->
<g id="node25" class="node">
<title>RegistrarAdminComponent</title>
<polygon fill="#ffffb3" stroke="#000000" points="1504.5336,-122 1333.4664,-122 1333.4664,-86 1504.5336,-86 1504.5336,-122"/>
<text text-anchor="middle" x="1419" y="-99.8" font-family="Times,serif" font-size="14.00" fill="#000000">RegistrarAdminComponent</text>
</g>
<!-- RegistrarAdminComponent&#45;&gt;AppModule -->
<g id="edge26" class="edge">
<title>RegistrarAdminComponent&#45;&gt;AppModule</title>
<path fill="none" stroke="#000000" d="M1419,-122.1686C1419,-141.0898 1419,-168 1419,-168 1419,-168 2692.157,-168 2692.157,-168"/>
<polygon fill="#000000" stroke="#000000" points="2692.157,-171.5001 2702.157,-168 2692.1569,-164.5001 2692.157,-171.5001"/>
</g>
<!-- RegistrarUsuarioComponent -->
<g id="node26" class="node">
<title>RegistrarUsuarioComponent</title>
<polygon fill="#ffffb3" stroke="#000000" points="1315.4622,-122 1138.5378,-122 1138.5378,-86 1315.4622,-86 1315.4622,-122"/>
<text text-anchor="middle" x="1227" y="-99.8" font-family="Times,serif" font-size="14.00" fill="#000000">RegistrarUsuarioComponent</text>
</g>
<!-- RegistrarUsuarioComponent&#45;&gt;AppModule -->
<g id="edge27" class="edge">
<title>RegistrarUsuarioComponent&#45;&gt;AppModule</title>
<path fill="none" stroke="#000000" d="M1227,-122.308C1227,-142.1455 1227,-171 1227,-171 1227,-171 2692.2412,-171 2692.2412,-171"/>
<polygon fill="#000000" stroke="#000000" points="2692.2412,-174.5001 2702.2412,-171 2692.2411,-167.5001 2692.2412,-174.5001"/>
</g>
<!-- SubAdminComponent -->
<g id="node27" class="node">
<title>SubAdminComponent</title>
<polygon fill="#ffffb3" stroke="#000000" points="1121.0028,-122 978.9972,-122 978.9972,-86 1121.0028,-86 1121.0028,-122"/>
<text text-anchor="middle" x="1050" y="-99.8" font-family="Times,serif" font-size="14.00" fill="#000000">SubAdminComponent</text>
</g>
<!-- SubAdminComponent&#45;&gt;AppModule -->
<g id="edge28" class="edge">
<title>SubAdminComponent&#45;&gt;AppModule</title>
<path fill="none" stroke="#000000" d="M1050,-122.1289C1050,-142.5724 1050,-173 1050,-173 1050,-173 2692.1256,-173 2692.1256,-173"/>
<polygon fill="#000000" stroke="#000000" points="2692.1256,-176.5001 2702.1256,-173 2692.1256,-169.5001 2692.1256,-176.5001"/>
</g>
<!-- SubCategoriaComponent -->
<g id="node28" class="node">
<title>SubCategoriaComponent</title>
<polygon fill="#ffffb3" stroke="#000000" points="960.5379,-122 803.4621,-122 803.4621,-86 960.5379,-86 960.5379,-122"/>
<text text-anchor="middle" x="882" y="-99.8" font-family="Times,serif" font-size="14.00" fill="#000000">SubCategoriaComponent</text>
</g>
<!-- SubCategoriaComponent&#45;&gt;AppModule -->
<g id="edge29" class="edge">
<title>SubCategoriaComponent&#45;&gt;AppModule</title>
<path fill="none" stroke="#000000" d="M882,-122.2843C882,-143.3211 882,-175 882,-175 882,-175 2692.056,-175 2692.056,-175"/>
<polygon fill="#000000" stroke="#000000" points="2692.0561,-178.5001 2702.056,-175 2692.056,-171.5001 2692.0561,-178.5001"/>
</g>
<!-- UsuarioComponent -->
<g id="node29" class="node">
<title>UsuarioComponent</title>
<polygon fill="#ffffb3" stroke="#000000" points="784.6499,-122 659.3501,-122 659.3501,-86 784.6499,-86 784.6499,-122"/>
<text text-anchor="middle" x="722" y="-99.8" font-family="Times,serif" font-size="14.00" fill="#000000">UsuarioComponent</text>
</g>
<!-- UsuarioComponent&#45;&gt;AppModule -->
<g id="edge30" class="edge">
<title>UsuarioComponent&#45;&gt;AppModule</title>
<path fill="none" stroke="#000000" d="M722,-122.0449C722,-143.6623 722,-177 722,-177 722,-177 2692.2318,-177 2692.2318,-177"/>
<polygon fill="#000000" stroke="#000000" points="2692.2318,-180.5001 2702.2318,-177 2692.2318,-173.5001 2692.2318,-180.5001"/>
</g>
<!-- UsuariosAdminComponent -->
<g id="node30" class="node">
<title>UsuariosAdminComponent</title>
<polygon fill="#ffffb3" stroke="#000000" points="640.9818,-122 471.0182,-122 471.0182,-86 640.9818,-86 640.9818,-122"/>
<text text-anchor="middle" x="556" y="-99.8" font-family="Times,serif" font-size="14.00" fill="#000000">UsuariosAdminComponent</text>
</g>
<!-- UsuariosAdminComponent&#45;&gt;AppModule -->
<g id="edge31" class="edge">
<title>UsuariosAdminComponent&#45;&gt;AppModule</title>
<path fill="none" stroke="#000000" d="M556,-122.1554C556,-144.3519 556,-179 556,-179 556,-179 2692.2456,-179 2692.2456,-179"/>
<polygon fill="#000000" stroke="#000000" points="2692.2456,-182.5001 2702.2456,-179 2692.2455,-175.5001 2692.2456,-182.5001"/>
</g>
<!-- AppComponent  -->
<g id="node34" class="node">
<title>AppComponent </title>
<polygon fill="#80b1d3" stroke="#000000" points="2798.439,-252 2689.561,-252 2689.561,-216 2798.439,-216 2798.439,-252"/>
<text text-anchor="middle" x="2744" y="-229.8" font-family="Times,serif" font-size="14.00" fill="#000000">AppComponent </text>
</g>
<!-- AppModule&#45;&gt;AppComponent  -->
<g id="edge34" class="edge">
<title>AppModule&#45;&gt;AppComponent </title>
<path fill="none" stroke="#000000" stroke-dasharray="1,5" d="M2744,-187.1061C2744,-187.1061 2744,-205.991 2744,-205.991"/>
<polygon fill="#000000" stroke="#000000" points="2740.5001,-205.9909 2744,-215.991 2747.5001,-205.991 2740.5001,-205.9909"/>
</g>
<!-- AppRoutingModule -->
<g id="node32" class="node">
<title>AppRoutingModule</title>
<polygon fill="#8dd3c7" stroke="#000000" points="447.2744,-122 444.2744,-126 423.2744,-126 420.2744,-122 318.7256,-122 318.7256,-86 447.2744,-86 447.2744,-122"/>
<text text-anchor="middle" x="383" y="-99.8" font-family="Times,serif" font-size="14.00" fill="#000000">AppRoutingModule</text>
</g>
<!-- AppRoutingModule&#45;&gt;AppModule -->
<g id="edge32" class="edge">
<title>AppRoutingModule&#45;&gt;AppModule</title>
<path fill="none" stroke="#000000" d="M383,-122.2479C383,-145.0179 383,-181 383,-181 383,-181 2692.27,-181 2692.27,-181"/>
<polygon fill="#000000" stroke="#000000" points="2692.27,-184.5001 2702.27,-181 2692.2699,-177.5001 2692.27,-184.5001"/>
</g>
<!-- MaterialModule -->
<g id="node33" class="node">
<title>MaterialModule</title>
<polygon fill="#8dd3c7" stroke="#000000" points="300.4706,-122 297.4706,-126 276.4706,-126 273.4706,-122 193.5294,-122 193.5294,-86 300.4706,-86 300.4706,-122"/>
<text text-anchor="middle" x="247" y="-99.8" font-family="Times,serif" font-size="14.00" fill="#000000">MaterialModule</text>
</g>
<!-- MaterialModule&#45;&gt;AppModule -->
<g id="edge33" class="edge">
<title>MaterialModule&#45;&gt;AppModule</title>
<path fill="none" stroke="#000000" d="M247,-122.3228C247,-145.6602 247,-183 247,-183 247,-183 2692.2269,-183 2692.2269,-183"/>
<polygon fill="#000000" stroke="#000000" points="2692.227,-186.5001 2702.2269,-183 2692.2269,-179.5001 2692.227,-186.5001"/>
</g>
<!-- AuthInterceptor -->
<g id="node35" class="node">
<title>AuthInterceptor</title>
<ellipse fill="#fdb462" stroke="#000000" cx="97" cy="-104" rx="72.9121" ry="18"/>
<text text-anchor="middle" x="97" y="-99.8" font-family="Times,serif" font-size="14.00" fill="#000000">AuthInterceptor</text>
</g>
<!-- AuthInterceptor&#45;&gt;AppModule -->
<g id="edge35" class="edge">
<title>AuthInterceptor&#45;&gt;AppModule</title>
<path fill="none" stroke="#000000" d="M97,-122.3802C97,-146.2785 97,-185 97,-185 97,-185 2692.1551,-185 2692.1551,-185"/>
<polygon fill="#000000" stroke="#000000" points="2692.1552,-188.5001 2702.1551,-185 2692.1551,-181.5001 2692.1552,-188.5001"/>
</g>
</g>
</svg>
